<svg xmlns="http://www.w3.org/2000/svg" xmlns:xlink="http://www.w3.org/1999/xlink" viewBox="0,0,256,256" width="96px" height="96px" fill-rule="nonzero"><g transform=""><g fill="#ffffff" fill-rule="nonzero" stroke="none" stroke-width="1" stroke-linecap="butt" stroke-linejoin="miter" stroke-miterlimit="10" stroke-dasharray="" stroke-dashoffset="0" font-family="none" font-weight="none" font-size="none" text-anchor="none" style="mix-blend-mode: normal"><g transform="scale(4,4)"><path d="M29.05469,10c-1.339,0 -2.48298,0.9642 -2.70898,2.2832l-0.58203,3.38086c-0.306,0.117 -0.6112,0.23809 -0.9082,0.37109l-2.79687,-1.97656c-1.228,-0.849 -2.67525,-0.53827 -3.53125,0.30273l-4.16602,4.16406c-0.947,0.947 -1.07278,2.43725 -0.30078,3.53125l1.97461,2.79883c-0.134,0.297 -0.25409,0.60025 -0.37109,0.90625l-3.38086,0.58203c-1.32,0.227 -2.2832,1.37194 -2.2832,2.71094v5.89062c0,1.339 0.9642,2.48298 2.2832,2.70898l3.38086,0.58203c0.117,0.306 0.23809,0.6112 0.37109,0.9082l-1.97656,2.79688c-0.772,1.093 -0.64427,2.58425 0.30273,3.53125l4.16406,4.16602c1.084,1.06 2.59925,0.97578 3.53125,0.30078l2.79883,-1.97461c0.297,0.134 0.60025,0.25409 0.90625,0.37109l0.58203,3.38086c0.227,1.32 1.37194,2.2832 2.71094,2.2832h5.89062c1.339,0 2.48298,-0.9642 2.70898,-2.2832l0.58203,-3.38086c0.306,-0.117 0.6112,-0.23809 0.9082,-0.37109l2.79688,1.97656c0.825,0.608 2.40225,0.82727 3.53125,-0.30273l4.16602,-4.16406c0.947,-0.947 1.07278,-2.43725 0.30078,-3.53125l-1.97461,-2.79883c0.134,-0.297 0.25409,-0.60025 0.37109,-0.90625l3.38086,-0.58203c1.32,-0.227 2.2832,-1.37194 2.2832,-2.71094v-5.89062c0,-1.339 -0.9642,-2.48298 -2.2832,-2.70898l-3.38086,-0.58203c-0.117,-0.306 -0.23809,-0.6112 -0.37109,-0.9082l1.97656,-2.79687c0.772,-1.093 0.64427,-2.58425 -0.30273,-3.53125l-4.16406,-4.16602c-1.057,-1.032 -2.52225,-1.00978 -3.53125,-0.30078l-2.79883,1.97461c-0.297,-0.134 -0.60025,-0.25409 -0.90625,-0.37109l-0.58203,-3.38086c-0.227,-1.32 -1.37194,-2.2832 -2.71094,-2.2832zM30.21484,14h3.57227c0.061,0 0.11305,0.04352 0.12305,0.10352l0.77148,4.48633c1.768,0.635 3.4232,1.3043 4.9082,2.0293l3.71289,-2.62305c0.05,-0.035 0.11911,-0.02933 0.16211,0.01367l2.52539,2.52734c0.043,0.043 0.05062,0.11016 0.01563,0.16016l-2.625,3.71484c0.759,1.605 1.4433,3.23725 2.0293,4.90625l4.48633,0.77344c0.06,0.01 0.10352,0.06205 0.10352,0.12305v3.57227c0,0.061 -0.04447,0.11305 -0.10547,0.12305l-4.48437,0.77148c-0.585,1.669 -1.2613,3.3042 -2.0293,4.9082l2.625,3.71484c0.035,0.05 0.02737,0.11716 -0.01562,0.16016l-2.52539,2.52734c-0.043,0.043 -0.11211,0.04867 -0.16211,0.01367l-3.71289,-2.62305c-1.64,0.771 -3.2762,1.4463 -4.9082,2.0293l-0.77344,4.48438c-0.01,0.06 -0.06205,0.10352 -0.12305,0.10352h-3.57227c-0.061,0 -0.11305,-0.04447 -0.12305,-0.10547l-0.77148,-4.48437c-1.609,-0.559 -3.2432,-1.2253 -4.9082,-2.0293l-3.71484,2.625c-0.05,0.035 -0.11716,0.02737 -0.16016,-0.01562l-2.52734,-2.52539c-0.043,-0.043 -0.04867,-0.11211 -0.01367,-0.16211l2.62305,-3.71289c-0.779,-1.665 -1.4553,-3.3012 -2.0293,-4.9082l-4.48437,-0.77344c-0.06,-0.01 -0.10352,-0.06205 -0.10352,-0.12305v-3.57227c0,-0.061 0.04352,-0.11205 0.10352,-0.12305l4.48633,-0.77344c0.581,-1.636 1.2473,-3.27125 2.0293,-4.90625l-2.625,-3.71484c-0.035,-0.05 -0.02737,-0.11716 0.01563,-0.16016l2.52539,-2.52734c0.043,-0.043 0.11211,-0.04867 0.16211,-0.01367l3.71289,2.62305c1.548,-0.743 3.1892,-1.4153 4.9082,-2.0293l0.77344,-4.48437c0.01,-0.06 0.06205,-0.10352 0.12305,-0.10352zM32,23c-4.971,0 -9,4.029 -9,9c0,4.971 4.029,9 9,9c4.971,0 9,-4.029 9,-9c0,-4.971 -4.029,-9 -9,-9zM32,27c2.761,0 5,2.239 5,5c0,2.761 -2.239,5 -5,5c-2.761,0 -5,-2.239 -5,-5c0,-2.761 2.239,-5 5,-5z"></path></g></g></g></svg>